<svg width="750" height="94" viewBox="0 0 750 94" fill="none" xmlns="http://www.w3.org/2000/svg">
<path d="M41.576 93.152C38.3333 93.152 35.8587 92.256 34.152 90.464C32.4453 88.672 31.592 86.1547 31.592 82.912V18.144H8.936C6.29067 18.144 4.24267 17.4187 2.792 15.968C1.34133 14.5173 0.616 12.512 0.616 9.952C0.616 7.30666 1.34133 5.30133 2.792 3.936C4.24267 2.48533 6.29067 1.75999 8.936 1.75999H74.088C76.7333 1.75999 78.7813 2.48533 80.232 3.936C81.6827 5.30133 82.408 7.30666 82.408 9.952C82.408 12.512 81.6827 14.5173 80.232 15.968C78.7813 17.4187 76.7333 18.144 74.088 18.144H51.432V82.912C51.432 86.1547 50.5787 88.672 48.872 90.464C47.2507 92.256 44.8187 93.152 41.576 93.152ZM111.814 93.408C104.39 93.408 97.99 92.0853 92.614 89.44C87.3233 86.7093 83.2273 82.912 80.326 78.048C77.51 73.0987 76.102 67.296 76.102 60.64C76.102 54.1547 77.4673 48.48 80.198 43.616C82.9287 38.6667 86.726 34.8267 91.59 32.096C96.5393 29.28 102.129 27.872 108.358 27.872C112.881 27.872 116.977 28.64 120.646 30.176C124.315 31.6267 127.473 33.76 130.118 36.576C132.763 39.3067 134.769 42.6773 136.134 46.688C137.499 50.6133 138.182 55.008 138.182 59.872C138.182 61.4933 137.67 62.7307 136.646 63.584C135.622 64.352 134.129 64.736 132.166 64.736H91.974V54.752H124.23L122.182 56.544C122.182 53.0453 121.67 50.144 120.646 47.84C119.622 45.4507 118.129 43.6587 116.166 42.464C114.289 41.2693 111.942 40.672 109.126 40.672C105.969 40.672 103.281 41.3973 101.062 42.848C98.8433 44.2987 97.1367 46.3893 95.942 49.12C94.7473 51.8507 94.15 55.136 94.15 58.976V60C94.15 66.4853 95.6433 71.264 98.63 74.336C101.702 77.408 106.225 78.944 112.198 78.944C114.246 78.944 116.593 78.688 119.238 78.176C121.883 77.664 124.358 76.8533 126.662 75.744C128.625 74.8053 130.374 74.5067 131.91 74.848C133.446 75.104 134.641 75.7867 135.494 76.896C136.347 78.0053 136.817 79.2853 136.902 80.736C137.073 82.1867 136.774 83.6373 136.006 85.088C135.238 86.4533 133.958 87.6053 132.166 88.544C129.265 90.1653 125.979 91.36 122.31 92.128C118.726 92.9813 115.227 93.408 111.814 93.408ZM159.152 93.152C155.995 93.152 153.563 92.2987 151.856 90.592C150.235 88.8853 149.424 86.4533 149.424 83.296V37.856C149.424 34.6987 150.235 32.3093 151.856 30.688C153.563 28.9813 155.909 28.128 158.896 28.128C161.968 28.128 164.315 28.9813 165.936 30.688C167.557 32.3093 168.368 34.6987 168.368 37.856V45.152L166.96 40.928C168.923 36.7467 171.824 33.5467 175.664 31.328C179.589 29.024 184.027 27.872 188.976 27.872C194.011 27.872 198.149 28.8533 201.392 30.816C204.635 32.6933 207.067 35.5947 208.688 39.52C210.309 43.36 211.12 48.2667 211.12 54.24V83.296C211.12 86.4533 210.267 88.8853 208.56 90.592C206.939 92.2987 204.549 93.152 201.392 93.152C198.32 93.152 195.931 92.2987 194.224 90.592C192.603 88.8853 191.792 86.4533 191.792 83.296V55.136C191.792 50.784 190.981 47.6693 189.36 45.792C187.824 43.8293 185.435 42.848 182.192 42.848C178.096 42.848 174.811 44.128 172.336 46.688C169.947 49.248 168.752 52.6613 168.752 56.928V83.296C168.752 89.8667 165.552 93.152 159.152 93.152ZM249.997 93.408C244.536 93.408 239.714 92.0853 235.533 89.44C231.437 86.7947 228.237 82.9973 225.933 78.048C223.629 73.0987 222.477 67.2533 222.477 60.512C222.477 53.7707 223.629 47.968 225.933 43.104C228.237 38.24 231.437 34.4853 235.533 31.84C239.714 29.1947 244.536 27.872 249.997 27.872C254.946 27.872 259.298 29.0667 263.053 31.456C266.893 33.8453 269.496 36.96 270.861 40.8H269.453V10.464C269.453 7.22133 270.264 4.78933 271.885 3.168C273.506 1.46133 275.896 0.607994 279.053 0.607994C282.125 0.607994 284.514 1.46133 286.221 3.168C287.928 4.78933 288.781 7.22133 288.781 10.464V83.296C288.781 86.4533 287.928 88.8853 286.221 90.592C284.6 92.2987 282.253 93.152 279.181 93.152C276.109 93.152 273.72 92.2987 272.013 90.592C270.392 88.8853 269.581 86.4533 269.581 83.296V74.592L270.989 79.584C269.794 83.7653 267.234 87.136 263.309 89.696C259.469 92.1707 255.032 93.408 249.997 93.408ZM255.757 78.944C258.573 78.944 261.005 78.2613 263.053 76.896C265.101 75.5307 266.722 73.5253 267.917 70.88C269.112 68.1493 269.709 64.6933 269.709 60.512C269.709 54.2827 268.429 49.7173 265.869 46.816C263.309 43.8293 259.938 42.336 255.757 42.336C253.026 42.336 250.594 42.976 248.461 44.256C246.413 45.536 244.792 47.5413 243.597 50.272C242.488 52.9173 241.933 56.3307 241.933 60.512C241.933 66.7413 243.213 71.392 245.773 74.464C248.333 77.4507 251.661 78.944 255.757 78.944ZM336.314 93.408C328.89 93.408 322.49 92.0853 317.114 89.44C311.823 86.7093 307.727 82.912 304.826 78.048C302.01 73.0987 300.602 67.296 300.602 60.64C300.602 54.1547 301.967 48.48 304.698 43.616C307.429 38.6667 311.226 34.8267 316.09 32.096C321.039 29.28 326.629 27.872 332.858 27.872C337.381 27.872 341.477 28.64 345.146 30.176C348.815 31.6267 351.973 33.76 354.618 36.576C357.263 39.3067 359.269 42.6773 360.634 46.688C361.999 50.6133 362.682 55.008 362.682 59.872C362.682 61.4933 362.17 62.7307 361.146 63.584C360.122 64.352 358.629 64.736 356.666 64.736H316.474V54.752H348.73L346.682 56.544C346.682 53.0453 346.17 50.144 345.146 47.84C344.122 45.4507 342.629 43.6587 340.666 42.464C338.789 41.2693 336.442 40.672 333.626 40.672C330.469 40.672 327.781 41.3973 325.562 42.848C323.343 44.2987 321.637 46.3893 320.442 49.12C319.247 51.8507 318.65 55.136 318.65 58.976V60C318.65 66.4853 320.143 71.264 323.13 74.336C326.202 77.408 330.725 78.944 336.698 78.944C338.746 78.944 341.093 78.688 343.738 78.176C346.383 77.664 348.858 76.8533 351.162 75.744C353.125 74.8053 354.874 74.5067 356.41 74.848C357.946 75.104 359.141 75.7867 359.994 76.896C360.847 78.0053 361.317 79.2853 361.402 80.736C361.573 82.1867 361.274 83.6373 360.506 85.088C359.738 86.4533 358.458 87.6053 356.666 88.544C353.765 90.1653 350.479 91.36 346.81 92.128C343.226 92.9813 339.727 93.408 336.314 93.408ZM383.908 93.152C380.665 93.152 378.191 92.2987 376.484 90.592C374.777 88.8853 373.924 86.4533 373.924 83.296V37.856C373.924 34.6987 374.735 32.3093 376.356 30.688C378.063 28.9813 380.409 28.128 383.396 28.128C386.468 28.128 388.815 28.9813 390.436 30.688C392.057 32.3093 392.868 34.6987 392.868 37.856V44.512H391.588C392.612 39.392 394.873 35.424 398.372 32.608C401.871 29.792 406.393 28.2133 411.94 27.872C414.073 27.7013 415.695 28.256 416.804 29.536C417.999 30.7307 418.639 32.736 418.724 35.552C418.895 38.1973 418.34 40.288 417.06 41.824C415.865 43.36 413.817 44.2987 410.916 44.64L407.972 44.896C403.108 45.3227 399.481 46.7307 397.092 49.12C394.788 51.5093 393.636 54.9653 393.636 59.488V83.296C393.636 86.4533 392.783 88.8853 391.076 90.592C389.455 92.2987 387.065 93.152 383.908 93.152ZM461.746 93.152C459.015 93.152 456.797 92.512 455.09 91.232C453.383 89.8667 452.018 87.8187 450.994 85.088L425.138 12.384C424.029 9.14133 424.242 6.368 425.778 4.064C427.399 1.75999 430.173 0.607994 434.098 0.607994C436.829 0.607994 438.919 1.24799 440.37 2.52799C441.906 3.808 443.143 5.81333 444.082 8.544L465.202 71.392H459.698L481.97 8.672C482.994 5.94133 484.231 3.936 485.682 2.656C487.218 1.29066 489.223 0.607994 491.698 0.607994C494.087 0.607994 496.007 1.29066 497.458 2.656C498.909 3.936 500.146 5.984 501.17 8.8L522.418 71.392H517.682L539.186 8.544C540.039 5.89866 541.234 3.936 542.77 2.656C544.306 1.29066 546.397 0.607994 549.042 0.607994C552.37 0.607994 554.802 1.75999 556.338 4.064C557.874 6.368 558.045 9.14133 556.85 12.384L530.738 85.216C529.799 87.8613 528.519 89.8667 526.898 91.232C525.277 92.512 523.058 93.152 520.242 93.152C517.511 93.152 515.335 92.512 513.714 91.232C512.093 89.8667 510.77 87.8187 509.746 85.088L489.522 27.872H492.594L472.114 85.216C471.09 87.8613 469.767 89.8667 468.146 91.232C466.61 92.512 464.477 93.152 461.746 93.152ZM592.007 93.408C585.266 93.408 579.378 92.0853 574.343 89.44C569.394 86.7947 565.554 82.9973 562.823 78.048C560.092 73.0987 558.727 67.2533 558.727 60.512C558.727 55.4773 559.495 50.9547 561.031 46.944C562.567 42.9333 564.786 39.52 567.687 36.704C570.674 33.8027 574.215 31.6267 578.311 30.176C582.407 28.64 586.972 27.872 592.007 27.872C598.748 27.872 604.594 29.1947 609.543 31.84C614.578 34.4853 618.46 38.24 621.191 43.104C624.007 47.968 625.415 53.7707 625.415 60.512C625.415 65.632 624.604 70.1973 622.983 74.208C621.447 78.2187 619.228 81.6747 616.327 84.576C613.426 87.4773 609.884 89.696 605.703 91.232C601.607 92.6827 597.042 93.408 592.007 93.408ZM592.007 78.944C594.823 78.944 597.255 78.2613 599.303 76.896C601.351 75.5307 602.972 73.5253 604.167 70.88C605.362 68.1493 605.959 64.6933 605.959 60.512C605.959 54.2827 604.679 49.7173 602.119 46.816C599.559 43.8293 596.188 42.336 592.007 42.336C589.276 42.336 586.844 42.976 584.711 44.256C582.663 45.536 581.042 47.5413 579.847 50.272C578.738 52.9173 578.183 56.3307 578.183 60.512C578.183 66.7413 579.463 71.392 582.023 74.464C584.583 77.4507 587.911 78.944 592.007 78.944ZM647.158 93.152C643.915 93.152 641.441 92.2987 639.734 90.592C638.027 88.8853 637.174 86.4533 637.174 83.296V37.856C637.174 34.6987 637.985 32.3093 639.606 30.688C641.313 28.9813 643.659 28.128 646.646 28.128C649.718 28.128 652.065 28.9813 653.686 30.688C655.307 32.3093 656.118 34.6987 656.118 37.856V44.512H654.838C655.862 39.392 658.123 35.424 661.622 32.608C665.121 29.792 669.643 28.2133 675.19 27.872C677.323 27.7013 678.945 28.256 680.054 29.536C681.249 30.7307 681.889 32.736 681.974 35.552C682.145 38.1973 681.59 40.288 680.31 41.824C679.115 43.36 677.067 44.2987 674.166 44.64L671.222 44.896C666.358 45.3227 662.731 46.7307 660.342 49.12C658.038 51.5093 656.886 54.9653 656.886 59.488V83.296C656.886 86.4533 656.033 88.8853 654.326 90.592C652.705 92.2987 650.315 93.152 647.158 93.152ZM699.652 93.152C696.495 93.152 694.063 92.2987 692.356 90.592C690.735 88.8853 689.924 86.4533 689.924 83.296V10.464C689.924 7.22133 690.735 4.78933 692.356 3.168C694.063 1.46133 696.495 0.607994 699.652 0.607994C702.724 0.607994 705.071 1.46133 706.692 3.168C708.399 4.78933 709.252 7.22133 709.252 10.464V55.136H709.508L728.068 34.528C729.945 32.3947 731.652 30.816 733.188 29.792C734.809 28.6827 736.943 28.128 739.588 28.128C742.233 28.128 744.239 28.8107 745.604 30.176C747.055 31.5413 747.78 33.2053 747.78 35.168C747.865 37.0453 747.055 38.9653 745.348 40.928L725.764 62.816V55.52L747.524 80.608C749.145 82.5707 749.828 84.5333 749.572 86.496C749.401 88.4587 748.548 90.08 747.012 91.36C745.476 92.5547 743.513 93.152 741.124 93.152C738.223 93.152 735.876 92.5973 734.084 91.488C732.377 90.3787 730.628 88.672 728.836 86.368L709.508 64.864H709.252V83.296C709.252 89.8667 706.052 93.152 699.652 93.152Z" fill="white"/>
</svg>
